# xmcd
#
# Track frame offsets: 
#        150
#        17987
#        39040
#        58685
#        70515
#        87495
#        101682
#        122840
#        142222
#        165172
#        187367
#        204532
#
# Disc length: 2958 seconds
#
# Revision: 7
# Processed by: cddbd v1.5.2PL0 Copyright (c) Steve Scherf et al.
# Submitted via: ExactAudioCopyFreeDBPlugin 1.0
#
DISCID=a90b8c0c
DTITLE=Tommy Castro - Right As Rain
DYEAR=1999
DGENRE=Blues
TTITLE0=Lucky In Love
TTITLE1=Like An Angel
TTITLE2=Right As Rain
TTITLE3=Don't Turn Your Heater Down
TTITLE4=I've Got To Love Somebody's Baby
TTITLE5=I Got To Change
TTITLE6=If I Had A Nickel
TTITLE7=Callin' San Francisco
TTITLE8=Just A Man
TTITLE9=Chairman Of The Board
TTITLE10=My Kind Of Woman
TTITLE11=Kickin' In
EXTD=
EXTT0=
EXTT1=
EXTT2=
EXTT3=
EXTT4=
EXTT5=
EXTT6=
EXTT7=
EXTT8=
EXTT9=
EXTT10=
EXTT11=
PLAYORDER=
